<svg version="1.1" xmlns="http://www.w3.org/2000/svg" width="3658px" height="980px" transform="rotate(0) scale(1, 1)">
<path d="M0 0 C196.02 0 392.04 0 594 0 C594 126.06 594 252.12 594 382 C454.08 382 314.16 382 170 382 C170 396.19 170 410.38 170 425 C309.92 425 449.84 425 594 425 C594 480.44 594 535.88 594 593 C397.98 593 201.96 593 0 593 C0 397.31 0 201.62 0 0 Z M170 169 C170 183.52 170 198.04 170 213 C254.15 213 338.3 213 425 213 C425 198.48 425 183.96 425 169 C340.85 169 256.7 169 170 169 Z " fill="#abb2bd" transform="translate(2342,213)"/>
<path d="M0 0 C196.02 0 392.04 0 594 0 C594 126.06 594 252.12 594 382 C454.08 382 314.16 382 170 382 C170 396.19 170 410.38 170 425 C309.92 425 449.84 425 594 425 C594 480.44 594 535.88 594 593 C397.98 593 201.96 593 0 593 C0 397.31 0 201.62 0 0 Z M170 169 C170 183.52 170 198.04 170 213 C254.15 213 338.3 213 425 213 C425 198.48 425 183.96 425 169 C340.85 169 256.7 169 170 169 Z " fill="#abb2bd" transform="translate(1669,213)"/>
<path d="M0 0 C196.02 0 392.04 0 594 0 C594 55.77 594 111.54 594 169 C454.08 169 314.16 169 170 169 C170 183.52 170 198.04 170 213 C309.92 213 449.84 213 594 213 C594 338.4 594 463.8 594 593 C397.98 593 201.96 593 0 593 C0 537.56 0 482.12 0 425 C140.25 425 280.5 425 425 425 C425 410.81 425 396.62 425 382 C284.75 382 144.5 382 0 382 C0 255.94 0 129.88 0 0 Z " fill="#abb2bd" transform="translate(988,213)"/>
<path d="M0 0 C56.1 0 112.2 0 170 0 C170 70.29 170 140.58 170 213 C239.96 213 309.92 213 382 213 C382 268.77 382 324.54 382 382 C312.04 382 242.08 382 170 382 C170 451.63 170 521.26 170 593 C113.9 593 57.8 593 0 593 C0 397.31 0 201.62 0 0 Z " fill="#abb2bd" transform="translate(3015,213)"/>
<path d="M0 0 C56.1 0 112.2 0 170 0 C170 55.77 170 111.54 170 169 C113.9 169 57.8 169 0 169 C0 113.23 0 57.46 0 0 Z " fill="#abb2bd" transform="translate(276,426)"/>
<path d="M0 0 C56.1 0 112.2 0 170 0 C170 55.77 170 111.54 170 169 C113.9 169 57.8 169 0 169 C0 113.23 0 57.46 0 0 Z " fill="#abb2bd" transform="translate(64,213)"/>
<path d="M0 0 C55.77 0 111.54 0 169 0 C169 55.77 169 111.54 169 169 C113.23 169 57.46 169 0 169 C0 113.23 0 57.46 0 0 Z " fill="#abb2bd" transform="translate(3440,213)"/>
<path d="M0 0 C55.77 0 111.54 0 169 0 C169 55.77 169 111.54 169 169 C113.23 169 57.46 169 0 169 C0 113.23 0 57.46 0 0 Z " fill="#abb2bd" transform="translate(489,213)"/>
<path d="M0 0 C56.1 0 112.2 0 170 0 C170 55.44 170 110.88 170 168 C113.9 168 57.8 168 0 168 C0 112.56 0 57.12 0 0 Z " fill="#abb2bd" transform="translate(729,638)"/>
<path d="M0 0 C56.1 0 112.2 0 170 0 C170 55.44 170 110.88 170 168 C113.9 168 57.8 168 0 168 C0 112.56 0 57.12 0 0 Z " fill="#abb2bd" transform="translate(64,638)"/>
<path d="M0 0 C55.77 0 111.54 0 169 0 C169 55.44 169 110.88 169 168 C113.23 168 57.46 168 0 168 C0 112.56 0 57.12 0 0 Z " fill="#abb2bd" transform="translate(3440,638)"/>
<path d="M0 0 C55.77 0 111.54 0 169 0 C169 55.44 169 110.88 169 168 C113.23 168 57.46 168 0 168 C0 112.56 0 57.12 0 0 Z " fill="#abb2bd" transform="translate(489,638)"/>
</svg>